<svg xmlns="http://www.w3.org/2000/svg" viewBox="0 0 26 31.25" fill="none" x="0px" y="0px"><path fill-rule="evenodd" clip-rule="evenodd" d="M24.7496 0.363966C25.0234 0.637784 25.1145 1.04507 24.9835 1.40946L17.0421 23.493C16.9263 23.8152 16.6536 24.0557 16.3195 24.1304C15.9853 24.2052 15.6361 24.1038 15.394 23.8617L10.5475 19.0151L7.07956 19.0416C6.81171 19.0437 6.55423 18.9382 6.36482 18.7487C6.17542 18.5593 6.06991 18.3019 6.07196 18.034L6.09843 14.5661L1.2519 9.71953C1.00978 9.47741 0.908371 9.12825 0.983126 8.7941C1.05788 8.45996 1.29841 8.18729 1.62061 8.07142L23.7041 0.130068C24.0685 -0.000969756 24.4758 0.0901494 24.7496 0.363966ZM8.09786 14.6491L8.07965 17.0339L10.4645 17.0157L18.4927 6.62086L8.09786 14.6491ZM20.953 6.70733L12.2877 17.9269L15.6936 21.3328L20.953 6.70733ZM18.4062 4.1606L7.18662 12.8258L3.78079 9.42L18.4062 4.1606Z" fill="black"/></svg>